<svg width="36" height="36" viewBox="0 0 36 36" fill="none" xmlns="http://www.w3.org/2000/svg">
<circle cx="18" cy="18" r="17" fill="#F7F8F9" stroke="#D5DDE0" stroke-width="0.2125"/>
<path d="M20.8071 21.3727L18.4256 18.99L16.0441 21.3727C15.9647 21.4515 15.8574 21.4958 15.7455 21.4958C15.6336 21.4958 15.5263 21.4515 15.447 21.3727L15.1493 21.0748C15.1099 21.0359 15.0786 20.9895 15.0572 20.9384C15.0359 20.8872 15.0249 20.8324 15.0249 20.777C15.0249 20.7216 15.0359 20.6667 15.0572 20.6156C15.0786 20.5644 15.1099 20.5181 15.1493 20.4791L17.5308 18.0965L15.1493 15.7139C15.1099 15.6749 15.0786 15.6285 15.0572 15.5774C15.0359 15.5263 15.0249 15.4715 15.0249 15.416C15.0249 15.3606 15.0359 15.3058 15.0572 15.2546C15.0786 15.2035 15.1099 15.1571 15.1493 15.1182L15.447 14.8204C15.486 14.7809 15.5326 14.7496 15.5838 14.7282C15.635 14.7068 15.69 14.6958 15.7455 14.6958C15.801 14.6958 15.856 14.7068 15.9072 14.7282C15.9585 14.7496 16.005 14.7809 16.0441 14.8204L18.4256 17.203L20.8071 14.8204C20.8462 14.7809 20.8928 14.7496 20.944 14.7282C20.9952 14.7068 21.0502 14.6958 21.1057 14.6958C21.1612 14.6958 21.2162 14.7068 21.2674 14.7282C21.3187 14.7496 21.3652 14.7809 21.4043 14.8204L21.7019 15.1182C21.7807 15.1973 21.8249 15.3044 21.8249 15.416C21.8249 15.5277 21.7807 15.6348 21.7019 15.7139L19.3204 18.0965L21.7019 20.4791C21.7807 20.5582 21.8249 20.6653 21.8249 20.777C21.8249 20.8886 21.7807 20.9957 21.7019 21.0748L21.4043 21.3727C21.3249 21.4515 21.2176 21.4958 21.1057 21.4958C20.9938 21.4958 20.8865 21.4515 20.8071 21.3727Z" fill="#9E00D6"/>
</svg>
