<svg width="216" height="216" viewBox="0 0 216 216" fill="none" xmlns="http://www.w3.org/2000/svg">
<path d="M71.8543 74.8751C69.1118 77.4557 68.98 81.7707 71.5599 84.5139L82.1907 95.8174C83.5318 97.2433 82.5208 99.582 80.5633 99.582H43.8133C40.0504 99.582 37 102.632 37 106.395C37 110.158 40.0504 113.209 43.8134 113.209H80.563C82.5206 113.209 83.5317 115.548 82.1905 116.974L71.5599 128.277C68.98 131.02 69.1116 135.335 71.854 137.916C74.5979 140.498 78.9157 140.366 81.4966 137.621L104.415 113.246C108.034 109.396 108.034 103.395 104.415 99.5459L81.4961 75.1703C78.9154 72.4256 74.598 72.2934 71.8543 74.8751Z" fill="url(#paint0_linear_1_6380)"/>
<path d="M91.8 141.066C91.8 137.716 94.5156 135 97.8655 135H99.1462C101.789 135 103.931 137.142 103.931 139.785C103.931 142.428 106.073 144.57 108.716 144.57H135C152.159 144.57 166.069 130.66 166.069 113.501V102.499C166.069 85.3403 152.159 71.4303 135 71.4303H108.716C106.073 71.4303 103.931 73.5725 103.931 76.2151C103.931 78.8578 101.789 81 99.1462 81H97.8655C94.5156 81 91.8 78.2844 91.8 74.9345V70.2C91.8 64.2354 96.6353 59.4 102.6 59.4H138.2C160.291 59.4 178.2 77.3086 178.2 99.4V116.6C178.2 138.691 160.291 156.6 138.2 156.6H102.6C96.6353 156.6 91.8 151.765 91.8 145.8V141.066Z" fill="url(#paint1_linear_1_6380)"/>
<defs>
<linearGradient id="paint0_linear_1_6380" x1="73.9278" y1="70.2" x2="73.9278" y2="142.592" gradientUnits="userSpaceOnUse">
<stop stop-color="#A154F2"/>
<stop offset="1" stop-color="#6202EE"/>
</linearGradient>
<linearGradient id="paint1_linear_1_6380" x1="135" y1="59.4" x2="135" y2="156.6" gradientUnits="userSpaceOnUse">
<stop stop-color="#A154F2"/>
<stop offset="1" stop-color="#6202EE"/>
</linearGradient>
</defs>
</svg>
