<svg width="83" height="20" viewBox="0 0 83 20" fill="none" xmlns="http://www.w3.org/2000/svg">
<path d="M10 5C10 2.23858 12.2386 0 15 0C17.7614 0 20 2.23858 20 5V15C20 17.7614 17.7614 20 15 20C12.2386 20 10 17.7614 10 15V5Z" fill="url(#paint0_linear_1_10720)"/>
<path d="M62.5 10C62.5 15.5228 66.9772 20 72.5 20C78.0229 20 82.5 15.5228 82.5 10C82.5 4.47715 78.0229 0 72.5 0C66.9772 0 62.5 4.47715 62.5 10Z" fill="url(#paint1_linear_1_10720)"/>
<path opacity="0.5" d="M0 10C0 15.5228 4.47715 20 10 20C15.5228 20 20 15.5228 20 10C20 4.47715 15.5228 0 10 0C4.47715 0 0 4.47715 0 10Z" fill="url(#paint2_linear_1_10720)"/>
<path d="M40 5C40 2.23858 42.2386 0 45 0C47.7614 0 50 2.23858 50 5V15C50 17.7614 47.7614 20 45 20C42.2386 20 40 17.7614 40 15V5Z" fill="url(#paint3_linear_1_10720)"/>
<path opacity="0.5" d="M25 15C25 17.7614 27.2386 20 30 20C32.7614 20 35 17.7614 35 15V5C35 2.23858 32.7614 0 30 0C27.2386 0 25 2.23858 25 5V15Z" fill="url(#paint4_linear_1_10720)"/>
<path opacity="0.5" d="M45 10C42.2386 10 40 7.76142 40 5C40 2.23858 42.2386 0 45 0L55 0C57.7614 0 60 2.23858 60 5C60 7.76142 57.7614 10 55 10L45 10Z" fill="url(#paint5_linear_1_10720)"/>
<defs>
<linearGradient id="paint0_linear_1_10720" x1="15" y1="0" x2="15" y2="20" gradientUnits="userSpaceOnUse">
<stop stop-color="#A154F2"/>
<stop offset="1" stop-color="#6202EE"/>
</linearGradient>
<linearGradient id="paint1_linear_1_10720" x1="72.5" y1="20" x2="72.5" y2="0" gradientUnits="userSpaceOnUse">
<stop stop-color="#A154F2"/>
<stop offset="1" stop-color="#6202EE"/>
</linearGradient>
<linearGradient id="paint2_linear_1_10720" x1="10" y1="20" x2="10" y2="0" gradientUnits="userSpaceOnUse">
<stop stop-color="#A154F2"/>
<stop offset="1" stop-color="#6202EE"/>
</linearGradient>
<linearGradient id="paint3_linear_1_10720" x1="45" y1="0" x2="45" y2="20" gradientUnits="userSpaceOnUse">
<stop stop-color="#A154F2"/>
<stop offset="1" stop-color="#6202EE"/>
</linearGradient>
<linearGradient id="paint4_linear_1_10720" x1="30" y1="20" x2="30" y2="0" gradientUnits="userSpaceOnUse">
<stop stop-color="#A154F2"/>
<stop offset="1" stop-color="#6202EE"/>
</linearGradient>
<linearGradient id="paint5_linear_1_10720" x1="40" y1="5" x2="60" y2="5" gradientUnits="userSpaceOnUse">
<stop stop-color="#6202EE"/>
<stop offset="1" stop-color="#8643E8"/>
</linearGradient>
</defs>
</svg>
