<svg width="32" height="32" viewBox="0 0 32 32" fill="none" xmlns="http://www.w3.org/2000/svg">
<path d="M29.1875 17.8126V16.625C29.1875 15.4028 28.4037 14.3608 27.3125 13.9738V2.875C27.3125 2.35725 26.8927 1.9375 26.375 1.9375C25.8573 1.9375 25.4375 2.35725 25.4375 2.875V13.9738C24.3463 14.3608 23.5625 15.4028 23.5625 16.625V17.8126H8.4375V16.625C8.4375 15.4028 7.65369 14.3608 6.5625 13.9738V2.875C6.5625 2.35725 6.14275 1.9375 5.625 1.9375C5.10725 1.9375 4.6875 2.35725 4.6875 2.875V13.9738C3.59631 14.3608 2.8125 15.4028 2.8125 16.625V17.8126C1.26169 17.8126 0 19.0742 0 20.625V26.2501C0 27.5749 0.921062 28.6879 2.15625 28.9844V29.125C2.15625 29.6427 2.576 30.0625 3.09375 30.0625C3.6115 30.0625 4.03125 29.6427 4.03125 29.125V29.0625H27.9688V29.125C27.9688 29.6427 28.3885 30.0625 28.9062 30.0625C29.424 30.0625 29.8438 29.6427 29.8438 29.125V28.9844C31.0789 28.6879 32 27.5748 32 26.2501V20.625C32 19.0742 30.7383 17.8126 29.1875 17.8126ZM25.4375 16.625C25.4375 16.1081 25.8581 15.6875 26.375 15.6875C26.8919 15.6875 27.3125 16.1081 27.3125 16.625V17.8125H25.4375V16.625ZM4.6875 16.625C4.6875 16.1081 5.10806 15.6875 5.625 15.6875C6.14194 15.6875 6.5625 16.1081 6.5625 16.625V17.8125H4.6875V16.625ZM30.125 26.2501C30.125 26.767 29.7044 27.1875 29.1875 27.1875H2.8125C2.29556 27.1875 1.875 26.7669 1.875 26.2501V20.625C1.875 20.1081 2.29556 19.6876 2.8125 19.6876H29.1875C29.7044 19.6876 30.125 20.1081 30.125 20.625V26.2501Z" fill="white"/>
<path d="M4.6875 22.5C4.17112 22.5 3.75 22.9212 3.75 23.4375C3.75 23.9539 4.17112 24.375 4.6875 24.375C5.20388 24.375 5.625 23.9539 5.625 23.4375C5.62506 22.9212 5.20388 22.5 4.6875 22.5Z" fill="white"/>
<path d="M8.43751 22.5C7.92113 22.5 7.5 22.9212 7.5 23.4375C7.5 23.9539 7.92113 24.375 8.43751 24.375C8.95388 24.375 9.37501 23.9539 9.37501 23.4375C9.37501 22.9212 8.95388 22.5 8.43751 22.5Z" fill="white"/>
<path d="M12.1875 22.5C11.6711 22.5 11.25 22.9212 11.25 23.4375C11.25 23.9539 11.6711 24.375 12.1875 24.375C12.7039 24.375 13.125 23.9539 13.125 23.4375C13.125 22.9212 12.7039 22.5 12.1875 22.5Z" fill="white"/>
<path d="M27.3125 22.5H17.4375C16.9197 22.5 16.5 22.9197 16.5 23.4375C16.5 23.9553 16.9197 24.375 17.4375 24.375H27.3125C27.8302 24.375 28.25 23.9553 28.25 23.4375C28.25 22.9197 27.8302 22.5 27.3125 22.5Z" fill="white"/>
</svg>
