<svg width="30" height="32" viewBox="0 0 30 32" fill="none" xmlns="http://www.w3.org/2000/svg">
<path d="M23.3751 15.0625C23.8933 15.0625 24.3126 14.6432 24.3126 14.125C24.3126 8.43871 19.6864 3.75 14 3.75C8.31371 3.75 3.6875 8.43871 3.6875 14.125C3.6875 14.6432 4.10681 15.0625 4.625 15.0625C5.14319 15.0625 5.56251 14.6432 5.56251 14.125C5.56251 9.47233 9.34733 5.62501 14 5.62501C18.6527 5.62501 22.4376 9.47233 22.4376 14.125C22.4376 14.6432 22.8569 15.0625 23.3751 15.0625Z" fill="white"/>
<path d="M14 7.5C10.3818 7.5 7.4375 10.5068 7.4375 14.125C7.4375 14.6432 7.85681 15.0625 8.375 15.0625C8.89319 15.0625 9.3125 14.6432 9.3125 14.125C9.3125 11.5404 11.4154 9.375 14 9.375C16.5846 9.375 18.6875 11.5404 18.6875 14.125C18.6875 14.6432 19.1068 15.0625 19.625 15.0625C20.1432 15.0625 20.5625 14.6432 20.5625 14.125C20.5625 10.5068 17.6182 7.5 14 7.5Z" fill="white"/>
<path d="M27.1251 15.0626C27.6433 15.0626 28.0626 14.6432 28.0626 14.1251C28.0626 6.37053 21.7546 0 14.0001 0C6.24552 0 -0.0625 6.37053 -0.0625 14.1251C-0.0625 14.6432 0.356814 15.0626 0.875004 15.0626C1.39319 15.0626 1.81251 14.6432 1.81251 14.1251C1.81251 7.40503 7.28003 1.87501 14.0001 1.87501C20.7201 1.87501 26.1876 7.40503 26.1876 14.1251C26.1876 14.6432 26.6069 15.0626 27.1251 15.0626Z" fill="white"/>
<path d="M8.04542 31.9406C8.53067 32.1182 9.06992 31.8774 9.25298 31.3922L9.72811 30.0626H18.2718L18.747 31.3921C18.9269 31.8721 19.463 32.1223 19.9546 31.9405C20.4389 31.7583 20.6843 31.2181 20.503 30.733L15.2403 16.6365C16.1677 16.1762 16.8125 15.2286 16.8125 14.125C16.8125 12.5741 15.5508 11.25 13.9999 11.25C12.4491 11.25 11.1874 12.5741 11.1874 14.125C11.1874 15.2287 11.8322 16.1763 12.7596 16.6365L7.49691 30.733C7.31573 31.2182 7.5611 31.7584 8.04542 31.9406ZM10.4312 28.1876L11.1342 26.3126H16.8659L17.5689 28.1876H10.4312ZM12.5403 22.5625H15.4597L16.1627 24.4376H11.8372L12.5403 22.5625ZM13.2434 20.6875L14 18.6697L14.7566 20.6875H13.2434Z" fill="white"/>
</svg>
